<?xml version="1.0" standalone="no"?><!-- Generator: Gravit.io --><svg xmlns="http://www.w3.org/2000/svg" xmlns:xlink="http://www.w3.org/1999/xlink" style="isolation:isolate" viewBox="0 0 1200 1200" width="1200" height="1200"><defs><clipPath id="_clipPath_4M59QBmJHnIpRujINGGGQE4ihneF2SUc"><rect width="1200" height="1200"/></clipPath></defs><g clip-path="url(#_clipPath_4M59QBmJHnIpRujINGGGQE4ihneF2SUc)"><mask id="_mask_4UMeY12RrFMyO756JG7AuWg3vzEbP5C7" x="-200%" y="-200%" width="400%" height="400%"><rect x="-200%" y="-200%" width="400%" height="400%" style="fill:white;"/><path d=" M 205.45 483.05 L 176 483.05 L 176 752.261 L 176 754.44" fill="black" stroke="none"/></mask><path d=" M 205.45 483.05 L 176 483.05 L 176 752.261 L 176 754.44" fill="none" mask="url(#_mask_4UMeY12RrFMyO756JG7AuWg3vzEbP5C7)" vector-effect="non-scaling-stroke" stroke-width="8" stroke="rgb(139,221,228)" stroke-linejoin="miter" stroke-linecap="butt" stroke-miterlimit="10"/><rect x="261.28" y="453.49" width="262.42" height="505.38" transform="matrix(1,0,0,1,0,0)" fill="rgb(187,191,195)"/><rect x="200.96" y="453.49" width="61.04" height="505.38" transform="matrix(1,0,0,1,0,0)" fill="rgb(104,115,127)"/><path d=" M 262.94 974 C 203.71 974 102.65 883.61 102.65 808.54 C 102.65 802.83 105.36 792.05 111.34 792.05 C 143.67 792 262.94 888.37 262.94 974 Z " fill="rgb(43,27,131)"/><mask id="_mask_dPOWoanEwgwVPH9Fbpk4tIK8z7UzsJBY" x="-200%" y="-200%" width="400%" height="400%"><rect x="-200%" y="-200%" width="400%" height="400%" style="fill:white;"/><path d=" M 655.57 316.71 L 655.57 646.56 L 674.5 646.56" fill="black" stroke="none"/></mask><path d=" M 655.57 316.71 L 655.57 646.56 L 674.5 646.56" fill="none" mask="url(#_mask_dPOWoanEwgwVPH9Fbpk4tIK8z7UzsJBY)" vector-effect="non-scaling-stroke" stroke-width="8" stroke="rgb(139,221,228)" stroke-linejoin="miter" stroke-linecap="butt" stroke-miterlimit="10"/><mask id="_mask_rkY2n7qUocihU1UbMkkJiiiMsP4B6Ld4" x="-200%" y="-200%" width="400%" height="400%"><rect x="-200%" y="-200%" width="400%" height="400%" style="fill:white;"/><line x1="967.87" y1="1008.54" x2="902.89" y2="899.2" fill="black" stroke="none"/></mask><line x1="967.87" y1="1008.54" x2="902.89" y2="899.2" mask="url(#_mask_rkY2n7qUocihU1UbMkkJiiiMsP4B6Ld4)" vector-effect="non-scaling-stroke" stroke-width="4" stroke="rgb(111,98,183)" stroke-linejoin="round" stroke-linecap="round" stroke-miterlimit="4"/><mask id="_mask_K94JFKGE1hK2vycae2gp78qkJKeazlqB" x="-200%" y="-200%" width="400%" height="400%"><rect x="-200%" y="-200%" width="400%" height="400%" style="fill:white;"/><line x1="996.05" y1="1008.54" x2="931.07" y2="899.2" fill="black" stroke="none"/></mask><line x1="996.05" y1="1008.54" x2="931.07" y2="899.2" mask="url(#_mask_K94JFKGE1hK2vycae2gp78qkJKeazlqB)" vector-effect="non-scaling-stroke" stroke-width="4" stroke="rgb(111,98,183)" stroke-linejoin="round" stroke-linecap="round" stroke-miterlimit="4"/><mask id="_mask_BNeZT3fVA9otxFBDkzRJLjwHcKQTqPep" x="-200%" y="-200%" width="400%" height="400%"><rect x="-200%" y="-200%" width="400%" height="400%" style="fill:white;"/><line x1="788.62" y1="1008.54" x2="853.59" y2="899.2" fill="black" stroke="none"/></mask><line x1="788.62" y1="1008.54" x2="853.59" y2="899.2" mask="url(#_mask_BNeZT3fVA9otxFBDkzRJLjwHcKQTqPep)" vector-effect="non-scaling-stroke" stroke-width="4" stroke="rgb(111,98,183)" stroke-linejoin="round" stroke-linecap="round" stroke-miterlimit="4"/><defs><filter id="NvAKheIc4eBoOHQuxnvDgw9APe0N1RGh" x="-200%" y="-200%" width="400%" height="400%" filterUnits="objectBoundingBox" color-interpolation-filters="sRGB"><feGaussianBlur xmlns="http://www.w3.org/2000/svg" in="SourceGraphic" stdDeviation="2.146804531419514"/><feOffset xmlns="http://www.w3.org/2000/svg" dx="0" dy="0" result="pf_100_offsetBlur"/><feFlood xmlns="http://www.w3.org/2000/svg" flood-color="#000000" flood-opacity="0.65"/><feComposite xmlns="http://www.w3.org/2000/svg" in2="pf_100_offsetBlur" operator="in" result="pf_100_dropShadow"/><feBlend xmlns="http://www.w3.org/2000/svg" in="SourceGraphic" in2="pf_100_dropShadow" mode="normal"/></filter></defs><g filter="url(#NvAKheIc4eBoOHQuxnvDgw9APe0N1RGh)"><path d=" M 939.145 669.695 L 1035.215 669.695 L 970.695 903.525 L 807.015 903.525 L 807.015 895.195 L 928.405 895.195" fill="rgb(111,98,183)" vector-effect="non-scaling-stroke" stroke-width="30" stroke="rgb(35,23,104)" stroke-linejoin="miter" stroke-linecap="butt" stroke-miterlimit="4"/></g><rect x="778.134" y="1001.418" width="18.43" height="16.47" transform="matrix(0.988,-0.154,0.154,0.988,-145.806,132.99)" fill="rgb(254,183,141)"/><rect x="666.539" y="983.457" width="18.43" height="16.47" transform="matrix(0.839,0.545,-0.545,0.839,649.133,-208.053)" fill="rgb(254,183,141)"/><path d=" M 748.58 822.26 C 735.13 822.26 668 978.55 668 984.26 C 668 989.97 682.57 996.45 684.72 996.45 C 688.07 993.34 752.33 900.45 759.02 893.97 C 765.71 887.49 748.58 822.26 748.58 822.26 Z " fill="rgb(35,23,104)"/><path d=" M 855.4 707.49 C 850.98 708.88 829.4 727.37 825.63 749.58 C 821.79 749.12 798.75 748.16 789.15 747.77 C 786.01 742.88 779.4 739.49 771.73 739.49 C 761.04 739.49 752.37 746.06 752.37 754.16 C 752.37 754.34 752.37 754.51 752.37 754.69 L 791.02 754.69 C 791.02 754.51 791.02 754.34 791.02 754.16 C 791.007 752.113 790.455 750.106 789.42 748.34 L 823 753.69 L 862.89 757.84 L 867 723 L 855.4 707.49 Z " fill="rgb(254,183,141)"/><path d=" M 888.52 682.74 C 888.52 679.93 881.52 676.74 876.38 676.74 C 862.66 676.74 839.45 701.74 839.45 704.88 C 839.45 708.02 856.16 722 869 722.84 C 881.84 723.68 888.52 682.74 888.52 682.74 Z " fill="rgb(43,27,131)"/><path d=" M 922.6 662.7 C 1000.15 662.7 982.43 837.89 972.6 845.29 C 962.77 852.69 876.6 853.37 870.99 845.97 C 865.38 838.57 830.57 662.7 922.6 662.7 Z " fill="rgb(52,33,158)"/><path d=" M 936.23 629.19 L 905.23 629.19 L 905.23 670.72 C 905.23 677.31 936.23 677.36 936.23 670.72 L 936.23 629.19 Z " fill="rgb(254,183,141)"/><path d=" M 907.625 653.615 C 890.925 650.952 880.581 628.635 884.54 603.809 C 888.499 578.982 905.271 560.989 921.97 563.652 C 938.67 566.315 949.014 588.632 945.056 613.458 C 941.097 638.284 924.325 656.278 907.625 653.615 Z " fill="rgb(254,183,141)"/><path d=" M 987.5 541.5 C 1002.5 541.5 1017.5 549.5 1036.5 549.5 C 1051.5 549.5 1065.5 543.5 1083.5 543.5 C 1115.5 543.5 1125.5 564.5 1125.5 577.5 C 1125.5 610.5 1098.5 623.5 1078.5 623.5 C 1046.5 623.5 1042.5 601.5 1004.5 601.5 C 967.5 601.5 972.5 571.5 964.5 571.5 C 960.5 571.5 958 572 956.5 573.5 C 955 575 947.5 569.5 947.5 567.5 C 947.5 565.5 957.5 541.5 987.5 541.5 Z " fill="rgb(35,23,104)"/><path d=" M 920.5 552.5 C 885.13 552.5 877.73 579.41 877.73 587.18 C 877.73 594.95 882.64 600.71 885.15 600.9 C 886.71 591.61 894.15 578.79 894.5 578.5 C 896.5 580.5 903.91 586.92 911.5 587.5 C 917.823 587.825 923.961 589.737 929.35 593.06 C 929.796 595.644 930.77 598.109 932.21 600.3 C 934.256 603.597 937.347 606.114 940.99 607.45 C 941.879 609.683 942.389 612.049 942.5 614.45 C 942.5 625.13 941.5 629.45 940.5 632.45 C 956.8 632.45 964.5 615.66 964.5 594.45 C 964.5 559.53 933.6 552.5 920.5 552.5 Z " fill="rgb(35,23,104)"/><circle vector-effect="non-scaling-stroke" cx="942.45" cy="614.66" r="8.639999999999986" fill="rgb(254,183,141)"/><path d=" M 913.5 727.37 C 910.01 728.21 896.02 736.88 887.63 751.84 C 879.38 750.3 845.82 741.91 816.03 741.91 C 813.23 741.91 805.96 739.61 803.03 739.61 C 785.56 739.61 781.91 749.05 781.91 751.84 C 781.91 754.63 782.51 754.71 783.05 754.71 C 843.05 754.71 858.14 780.02 891.89 780.02 C 902.81 780.02 925.32 772.11 938.89 751.85 C 934.13 735.71 913.5 727.37 913.5 727.37 Z " fill="rgb(254,183,141)"/><path d=" M 972.48 693.27 C 991.22 711.46 943.83 761.81 936.23 761.07 C 928.63 760.33 901.23 731.48 900.97 722.71 C 900.71 713.94 954.37 675.68 972.48 693.27 Z " fill="rgb(43,27,131)"/><rect x="587.77" y="756.95" width="423.23" height="13.66" transform="matrix(1,0,0,1,0,0)" fill="rgb(111,98,183)"/><path d=" M 972.43 854 C 972.43 849.7 973.18 844.72 970.5 843.61 C 906.88 817.38 813.74 813.98 799.39 813.98 C 785.04 813.98 743.08 815.44 743.08 827.45 C 743.08 870.83 767.25 1004.38 772.16 1009.37 C 774.49 1011.72 794.81 1010.15 797.34 1007.61 C 797.17 996.61 803.56 886.12 797.73 872.74 C 851.2 892.34 911.92 901.62 927.92 901.62 C 974.29 901.57 972.43 859.1 972.43 854 Z " fill="rgb(35,23,104)"/><path d=" M 680.52 1001.56 L 664.38 990.8 L 620.94 981.7 L 616.81 988.52 L 668 1020.17 L 680.52 1001.56 L 680.52 1001.56 Z " fill="rgb(35,23,104)"/><path d=" M 799.23 1012.08 L 780.08 1015.09 L 741.95 1037.81 L 743.53 1045.64 L 802.63 1034.26 L 799.23 1012.08 L 799.23 1012.08 Z " fill="rgb(35,23,104)"/><mask id="_mask_LmXIq6ZgvRnFyDZ8UHbE0fQ8ZHXZlDon" x="-200%" y="-200%" width="400%" height="400%"><rect x="-200%" y="-200%" width="400%" height="400%" style="fill:white;"/><line x1="988.26" y1="974.33" x2="988.26" y2="766.79" fill="black" stroke="none"/></mask><line x1="988.26" y1="974.33" x2="988.26" y2="766.79" mask="url(#_mask_LmXIq6ZgvRnFyDZ8UHbE0fQ8ZHXZlDon)" vector-effect="non-scaling-stroke" stroke-width="10" stroke="rgb(111,98,183)" stroke-linejoin="round" stroke-linecap="round" stroke-miterlimit="4"/><mask id="_mask_jYrlFmxdRl30Qr7Guwtqnyvf2UYwssQ9" x="-200%" y="-200%" width="400%" height="400%"><rect x="-200%" y="-200%" width="400%" height="400%" style="fill:white;"/><line x1="636.61" y1="974.33" x2="636.61" y2="766.79" fill="black" stroke="none"/></mask><line x1="636.61" y1="974.33" x2="636.61" y2="766.79" mask="url(#_mask_jYrlFmxdRl30Qr7Guwtqnyvf2UYwssQ9)" vector-effect="non-scaling-stroke" stroke-width="10" stroke="rgb(111,98,183)" stroke-linejoin="round" stroke-linecap="round" stroke-miterlimit="4"/><mask id="_mask_cYT19xusGCDc135YqhkVWGSeTlC5QuXg" x="-200%" y="-200%" width="400%" height="400%"><rect x="-200%" y="-200%" width="400%" height="400%" style="fill:white;"/><line x1="958.54" y1="1015.92" x2="958.54" y2="766.79" fill="black" stroke="none"/></mask><line x1="958.54" y1="1015.92" x2="958.54" y2="766.79" mask="url(#_mask_cYT19xusGCDc135YqhkVWGSeTlC5QuXg)" vector-effect="non-scaling-stroke" stroke-width="10" stroke="rgb(111,98,183)" stroke-linejoin="round" stroke-linecap="round" stroke-miterlimit="4"/><mask id="_mask_8UlGR7C0HpDwMuHPsKP7a4iF8inCsNcb" x="-200%" y="-200%" width="400%" height="400%"><rect x="-200%" y="-200%" width="400%" height="400%" style="fill:white;"/><line x1="605.21" y1="1015.92" x2="605.21" y2="766.79" fill="black" stroke="none"/></mask><line x1="605.21" y1="1015.92" x2="605.21" y2="766.79" mask="url(#_mask_8UlGR7C0HpDwMuHPsKP7a4iF8inCsNcb)" vector-effect="non-scaling-stroke" stroke-width="10" stroke="rgb(111,98,183)" stroke-linejoin="round" stroke-linecap="round" stroke-miterlimit="4"/><mask id="_mask_P7Rbqsi7bhdH8vfSXm7w8KJibyRoLJ6z" x="-200%" y="-200%" width="400%" height="400%"><rect x="-200%" y="-200%" width="400%" height="400%" style="fill:white;"/><line x1="817.53" y1="1008.54" x2="882.5" y2="899.2" fill="black" stroke="none"/></mask><line x1="817.53" y1="1008.54" x2="882.5" y2="899.2" mask="url(#_mask_P7Rbqsi7bhdH8vfSXm7w8KJibyRoLJ6z)" vector-effect="non-scaling-stroke" stroke-width="4" stroke="rgb(111,98,183)" stroke-linejoin="round" stroke-linecap="round" stroke-miterlimit="4"/><rect x="743.08" y="754.44" width="70.27" height="2.51" transform="matrix(1,0,0,1,0,0)" fill="rgb(116,213,222)"/><rect x="665.13" y="590.85" width="153.42" height="111.41" transform="matrix(1,0,0,1,0,0)" fill="rgb(52,33,158)"/><path d=" M 720.29 681.31 L 699.13 756.95 L 736.22 756.95 L 756.76 681.31 L 720.29 681.31 L 720.29 681.31 Z " fill="rgb(35,23,104)"/><path d=" M 750.19 322.09 C 765.374 307.237 768.019 283.754 756.518 265.896 C 745.018 248.038 722.544 240.731 702.74 248.41 C 690.224 229.229 668.152 218.511 645.338 220.535 C 622.524 222.559 602.684 236.995 593.74 258.08 C 576.006 250.908 555.674 255.807 543.153 270.269 C 530.632 284.732 528.694 305.555 538.33 322.08 L 750.19 322.09 Z " fill="rgb(139,221,228)"/><mask id="_mask_zqeIFYDHWuqfouIuwJmfpe6vnoSYsnej" x="-200%" y="-200%" width="400%" height="400%"><rect x="-200%" y="-200%" width="400%" height="400%" style="fill:white;"/><path d=" M 639.95 313.62 L 639.95 385.34 L 419.88 385.34 L 419.88 453.49" fill="black" stroke="none"/></mask><path d=" M 639.95 313.62 L 639.95 385.34 L 419.88 385.34 L 419.88 453.49" fill="none" mask="url(#_mask_zqeIFYDHWuqfouIuwJmfpe6vnoSYsnej)" vector-effect="non-scaling-stroke" stroke-width="8" stroke="rgb(139,221,228)" stroke-linejoin="miter" stroke-linecap="butt" stroke-miterlimit="10"/><rect x="158.772" y="719.348" width="12" height="7.37" transform="matrix(0.748,0.664,-0.664,0.748,521.436,72.866)" fill="transparent" vector-effect="non-scaling-stroke" stroke-width="1" stroke="rgb(52,33,158)" stroke-linejoin="miter" stroke-linecap="butt" stroke-miterlimit="2"/><rect x="159.272" y="719.848" width="11" height="6.37" transform="matrix(0.748,0.664,-0.664,0.748,521.436,72.866)" fill="rgb(52,33,158)"/><path d=" M 296.2 1015.92 C 302.05 1015.92 313.45 996.1 313.45 957.66 C 313.45 929.55 293.75 911.37 287.9 883.52 C 278.9 840.81 234.33 715.35 164.74 715.35 C 156.74 715.35 146 732.16 146 766.79 C 146 808.79 186.68 852.28 186.68 861.3 C 186.72 964.29 277.55 1015.92 296.2 1015.92 Z " fill="rgb(52,33,158)"/><mask id="_mask_mlGDvqXHXXs7kdSOUfT5xYJIeTzEAzxT" x="-200%" y="-200%" width="400%" height="400%"><rect x="-200%" y="-200%" width="400%" height="400%" style="fill:white;"/><path d=" M 296.93 1015.92 C 296.93 1010.217 288.662 971.955 284.366 962.392 C 280.069 952.83 263.199 905.005 260.558 891.806 C 257.917 878.606 210.971 751.66 165 719" fill="black" stroke="none"/></mask><path d=" M 296.93 1015.92 C 296.93 1010.217 288.662 971.955 284.366 962.392 C 280.069 952.83 263.199 905.005 260.558 891.806 C 257.917 878.606 210.971 751.66 165 719" fill="none" mask="url(#_mask_mlGDvqXHXXs7kdSOUfT5xYJIeTzEAzxT)" vector-effect="non-scaling-stroke" stroke-width="2" stroke="rgb(139,221,228)" stroke-linejoin="round" stroke-linecap="round" stroke-miterlimit="4"/><mask id="_mask_tIKuEvaTYrtuyr9QYbaBGfUHrsdLDnu2" x="-200%" y="-200%" width="400%" height="400%"><rect x="-200%" y="-200%" width="400%" height="400%" style="fill:white;"/><line x1="276.16" y1="940.85" x2="200.24" y2="925.39" fill="black" stroke="none"/></mask><line x1="276.16" y1="940.85" x2="200.24" y2="925.39" mask="url(#_mask_tIKuEvaTYrtuyr9QYbaBGfUHrsdLDnu2)" vector-effect="non-scaling-stroke" stroke-width="2" stroke="rgb(139,221,228)" stroke-linejoin="round" stroke-linecap="round" stroke-miterlimit="4"/><mask id="_mask_gDOpzuXogkcATZAcpPpRDKO8Varingkj" x="-200%" y="-200%" width="400%" height="400%"><rect x="-200%" y="-200%" width="400%" height="400%" style="fill:white;"/><line x1="279.98" y1="951.4" x2="210.45" y2="945.61" fill="black" stroke="none"/></mask><line x1="279.98" y1="951.4" x2="210.45" y2="945.61" mask="url(#_mask_gDOpzuXogkcATZAcpPpRDKO8Varingkj)" vector-effect="non-scaling-stroke" stroke-width="2" stroke="rgb(139,221,228)" stroke-linejoin="round" stroke-linecap="round" stroke-miterlimit="4"/><mask id="_mask_2xOwgkl9ttYFV6gT49hSxzRMwvh1M9jM" x="-200%" y="-200%" width="400%" height="400%"><rect x="-200%" y="-200%" width="400%" height="400%" style="fill:white;"/><line x1="259.1" y1="883.56" x2="188.53" y2="862.2" fill="black" stroke="none"/></mask><line x1="259.1" y1="883.56" x2="188.53" y2="862.2" mask="url(#_mask_2xOwgkl9ttYFV6gT49hSxzRMwvh1M9jM)" vector-effect="non-scaling-stroke" stroke-width="2" stroke="rgb(139,221,228)" stroke-linejoin="round" stroke-linecap="round" stroke-miterlimit="4"/><mask id="_mask_6ba8zdCcPU1Wrdvk26bAmqzwygobx6ni" x="-200%" y="-200%" width="400%" height="400%"><rect x="-200%" y="-200%" width="400%" height="400%" style="fill:white;"/><line x1="266.82" y1="906.95" x2="288.36" y2="891.29" fill="black" stroke="none"/></mask><line x1="266.82" y1="906.95" x2="288.36" y2="891.29" mask="url(#_mask_6ba8zdCcPU1Wrdvk26bAmqzwygobx6ni)" vector-effect="non-scaling-stroke" stroke-width="2" stroke="rgb(139,221,228)" stroke-linejoin="round" stroke-linecap="round" stroke-miterlimit="4"/><mask id="_mask_vdLkJh8dtYDhx9SDzmZdtah1YBe1cXJV" x="-200%" y="-200%" width="400%" height="400%"><rect x="-200%" y="-200%" width="400%" height="400%" style="fill:white;"/><line x1="226" y1="802" x2="245.32" y2="780.02" fill="black" stroke="none"/></mask><line x1="226" y1="802" x2="245.32" y2="780.02" mask="url(#_mask_vdLkJh8dtYDhx9SDzmZdtah1YBe1cXJV)" vector-effect="non-scaling-stroke" stroke-width="2" stroke="rgb(139,221,228)" stroke-linejoin="round" stroke-linecap="round" stroke-miterlimit="4"/><mask id="_mask_YLlEWvOassuuj3h5cuYX0RO97ibiAQ2g" x="-200%" y="-200%" width="400%" height="400%"><rect x="-200%" y="-200%" width="400%" height="400%" style="fill:white;"/><line x1="220.39" y1="790.21" x2="237" y2="768" fill="black" stroke="none"/></mask><line x1="220.39" y1="790.21" x2="237" y2="768" mask="url(#_mask_YLlEWvOassuuj3h5cuYX0RO97ibiAQ2g)" vector-effect="non-scaling-stroke" stroke-width="2" stroke="rgb(139,221,228)" stroke-linejoin="round" stroke-linecap="round" stroke-miterlimit="4"/><rect x="283.02" y="485.46" width="218.93" height="42.2" transform="matrix(1,0,0,1,0,0)" fill="rgb(255,255,255)"/><circle vector-effect="non-scaling-stroke" cx="486.23" cy="501.26" r="7.399999999999977" fill="rgb(227,0,105)"/><mask id="_mask_LgwQPw57EsQyxjSliOmas5QPtaF8VzpY" x="-200%" y="-200%" width="400%" height="400%"><rect x="-200%" y="-200%" width="400%" height="400%" style="fill:white;"/><line x1="358.62" y1="501.26" x2="472.6" y2="501.26" fill="black" stroke="none"/></mask><line x1="358.62" y1="501.26" x2="472.6" y2="501.26" mask="url(#_mask_LgwQPw57EsQyxjSliOmas5QPtaF8VzpY)" vector-effect="non-scaling-stroke" stroke-width="8" stroke="rgb(227,0,105)" stroke-linejoin="round" stroke-linecap="round" stroke-miterlimit="4"/><rect x="283.02" y="556.8" width="218.93" height="42.2" transform="matrix(1,0,0,1,0,0)" fill="rgb(255,255,255)"/><circle vector-effect="non-scaling-stroke" cx="486.23" cy="572.6" r="7.399999999999977" fill="rgb(227,0,105)"/><mask id="_mask_942cwZWlWbmEOT28qY0C6nn5RJt7aaSt" x="-200%" y="-200%" width="400%" height="400%"><rect x="-200%" y="-200%" width="400%" height="400%" style="fill:white;"/><line x1="358.62" y1="572.6" x2="472.6" y2="572.6" fill="black" stroke="none"/></mask><line x1="358.62" y1="572.6" x2="472.6" y2="572.6" mask="url(#_mask_942cwZWlWbmEOT28qY0C6nn5RJt7aaSt)" vector-effect="non-scaling-stroke" stroke-width="8" stroke="rgb(227,0,105)" stroke-linejoin="round" stroke-linecap="round" stroke-miterlimit="4"/><rect x="283.02" y="628.13" width="218.93" height="42.2" transform="matrix(1,0,0,1,0,0)" fill="rgb(255,255,255)"/><circle vector-effect="non-scaling-stroke" cx="486.23" cy="643.93" r="7.399999999999977" fill="rgb(227,0,105)"/><mask id="_mask_AOks11BlVr0KtFaZQUl4Ih1EXCtXIKN5" x="-200%" y="-200%" width="400%" height="400%"><rect x="-200%" y="-200%" width="400%" height="400%" style="fill:white;"/><line x1="358.62" y1="643.93" x2="472.6" y2="643.93" fill="black" stroke="none"/></mask><line x1="358.62" y1="643.93" x2="472.6" y2="643.93" mask="url(#_mask_AOks11BlVr0KtFaZQUl4Ih1EXCtXIKN5)" vector-effect="non-scaling-stroke" stroke-width="8" stroke="rgb(227,0,105)" stroke-linejoin="round" stroke-linecap="round" stroke-miterlimit="4"/><rect x="283.02" y="699.47" width="218.93" height="42.2" transform="matrix(1,0,0,1,0,0)" fill="rgb(255,255,255)"/><circle vector-effect="non-scaling-stroke" cx="486.23" cy="715.27" r="7.399999999999977" fill="rgb(227,0,105)"/><mask id="_mask_duM65hsRZiWUtlMMAwZJfICbK0K4qcLZ" x="-200%" y="-200%" width="400%" height="400%"><rect x="-200%" y="-200%" width="400%" height="400%" style="fill:white;"/><line x1="358.62" y1="715.27" x2="472.6" y2="715.27" fill="black" stroke="none"/></mask><line x1="358.62" y1="715.27" x2="472.6" y2="715.27" mask="url(#_mask_duM65hsRZiWUtlMMAwZJfICbK0K4qcLZ)" vector-effect="non-scaling-stroke" stroke-width="8" stroke="rgb(227,0,105)" stroke-linejoin="round" stroke-linecap="round" stroke-miterlimit="4"/><rect x="283.02" y="770.8" width="218.93" height="42.2" transform="matrix(1,0,0,1,0,0)" fill="rgb(255,255,255)"/><circle vector-effect="non-scaling-stroke" cx="486.23" cy="786.61" r="7.399999999999977" fill="rgb(227,0,105)"/><mask id="_mask_EKirTPDch9nvgJfLWQt6PawNPrBY9KE7" x="-200%" y="-200%" width="400%" height="400%"><rect x="-200%" y="-200%" width="400%" height="400%" style="fill:white;"/><line x1="358.62" y1="786.61" x2="472.6" y2="786.61" fill="black" stroke="none"/></mask><line x1="358.62" y1="786.61" x2="472.6" y2="786.61" mask="url(#_mask_EKirTPDch9nvgJfLWQt6PawNPrBY9KE7)" vector-effect="non-scaling-stroke" stroke-width="8" stroke="rgb(227,0,105)" stroke-linejoin="round" stroke-linecap="round" stroke-miterlimit="4"/><mask id="_mask_JEyEHEtJXDOtVb4CmeR2IyGZDZb81Ckg" x="-200%" y="-200%" width="400%" height="400%"><rect x="-200%" y="-200%" width="400%" height="400%" style="fill:white;"/><line x1="215.06" y1="515.82" x2="247.9" y2="515.82" fill="black" stroke="none"/></mask><line x1="215.06" y1="515.82" x2="247.9" y2="515.82" mask="url(#_mask_JEyEHEtJXDOtVb4CmeR2IyGZDZb81Ckg)" vector-effect="non-scaling-stroke" stroke-width="4" stroke="rgb(243,243,243)" stroke-linejoin="round" stroke-linecap="round" stroke-miterlimit="4"/><mask id="_mask_wjoIzLsUS4bH3UcNcaTPVDk3lb3Tk7qA" x="-200%" y="-200%" width="400%" height="400%"><rect x="-200%" y="-200%" width="400%" height="400%" style="fill:white;"/><line x1="215.06" y1="524.32" x2="247.9" y2="524.32" fill="black" stroke="none"/></mask><line x1="215.06" y1="524.32" x2="247.9" y2="524.32" mask="url(#_mask_wjoIzLsUS4bH3UcNcaTPVDk3lb3Tk7qA)" vector-effect="non-scaling-stroke" stroke-width="4" stroke="rgb(243,243,243)" stroke-linejoin="round" stroke-linecap="round" stroke-miterlimit="4"/><mask id="_mask_gzmLF70I2iWj3B18nM6vUdfFmpDrbdA3" x="-200%" y="-200%" width="400%" height="400%"><rect x="-200%" y="-200%" width="400%" height="400%" style="fill:white;"/><line x1="215.06" y1="573.65" x2="247.9" y2="573.65" fill="black" stroke="none"/></mask><line x1="215.06" y1="573.65" x2="247.9" y2="573.65" mask="url(#_mask_gzmLF70I2iWj3B18nM6vUdfFmpDrbdA3)" vector-effect="non-scaling-stroke" stroke-width="4" stroke="rgb(243,243,243)" stroke-linejoin="round" stroke-linecap="round" stroke-miterlimit="4"/><mask id="_mask_AAq8MS7YL3QlCCyuaHkG3J3ZhLBDVJDv" x="-200%" y="-200%" width="400%" height="400%"><rect x="-200%" y="-200%" width="400%" height="400%" style="fill:white;"/><line x1="215.06" y1="582.15" x2="247.9" y2="582.15" fill="black" stroke="none"/></mask><line x1="215.06" y1="582.15" x2="247.9" y2="582.15" mask="url(#_mask_AAq8MS7YL3QlCCyuaHkG3J3ZhLBDVJDv)" vector-effect="non-scaling-stroke" stroke-width="4" stroke="rgb(243,243,243)" stroke-linejoin="round" stroke-linecap="round" stroke-miterlimit="4"/><mask id="_mask_AuRjwL08fHTX0IwfzA431l0nmEIRDsV7" x="-200%" y="-200%" width="400%" height="400%"><rect x="-200%" y="-200%" width="400%" height="400%" style="fill:white;"/><line x1="215.06" y1="643.93" x2="247.9" y2="643.93" fill="black" stroke="none"/></mask><line x1="215.06" y1="643.93" x2="247.9" y2="643.93" mask="url(#_mask_AuRjwL08fHTX0IwfzA431l0nmEIRDsV7)" vector-effect="non-scaling-stroke" stroke-width="4" stroke="rgb(243,243,243)" stroke-linejoin="round" stroke-linecap="round" stroke-miterlimit="4"/><mask id="_mask_xpCdIE36k1r2xA3CZfFzwUsbcummPh8L" x="-200%" y="-200%" width="400%" height="400%"><rect x="-200%" y="-200%" width="400%" height="400%" style="fill:white;"/><line x1="215.06" y1="652.44" x2="247.9" y2="652.44" fill="black" stroke="none"/></mask><line x1="215.06" y1="652.44" x2="247.9" y2="652.44" mask="url(#_mask_xpCdIE36k1r2xA3CZfFzwUsbcummPh8L)" vector-effect="non-scaling-stroke" stroke-width="4" stroke="rgb(243,243,243)" stroke-linejoin="round" stroke-linecap="round" stroke-miterlimit="4"/><mask id="_mask_IJchQzcCpi0PGoUmKX5aH6X5zJuq6y1u" x="-200%" y="-200%" width="400%" height="400%"><rect x="-200%" y="-200%" width="400%" height="400%" style="fill:white;"/><line x1="215.06" y1="711.93" x2="247.9" y2="711.93" fill="black" stroke="none"/></mask><line x1="215.06" y1="711.93" x2="247.9" y2="711.93" mask="url(#_mask_IJchQzcCpi0PGoUmKX5aH6X5zJuq6y1u)" vector-effect="non-scaling-stroke" stroke-width="4" stroke="rgb(243,243,243)" stroke-linejoin="round" stroke-linecap="round" stroke-miterlimit="4"/><mask id="_mask_uiqkS2RVUGVlH1VFwIiean8hTLsAD1IU" x="-200%" y="-200%" width="400%" height="400%"><rect x="-200%" y="-200%" width="400%" height="400%" style="fill:white;"/><line x1="215.06" y1="720.44" x2="247.9" y2="720.44" fill="black" stroke="none"/></mask><line x1="215.06" y1="720.44" x2="247.9" y2="720.44" mask="url(#_mask_uiqkS2RVUGVlH1VFwIiean8hTLsAD1IU)" vector-effect="non-scaling-stroke" stroke-width="4" stroke="rgb(243,243,243)" stroke-linejoin="round" stroke-linecap="round" stroke-miterlimit="4"/></g></svg>